<mxfile host="app.diagrams.net" modified="2021-08-05T09:43:13.931Z" agent="5.0 (Windows NT 10.0; Win64; x64) AppleWebKit/537.36 (KHTML, like Gecko) Chrome/92.0.4515.107 Safari/537.36" etag="iMhJdwuK2ak7jv9wzgD_" version="14.9.3" type="github">
  <diagram id="r75LJRi-fipqu-zfm468" name="供应商结算">
    <mxGraphModel dx="1422" dy="762" grid="1" gridSize="10" guides="1" tooltips="1" connect="1" arrows="1" fold="1" page="1" pageScale="1" pageWidth="827" pageHeight="1169" math="0" shadow="0">
      <root>
        <mxCell id="0" />
        <mxCell id="1" parent="0" />
        <mxCell id="tNoYxJo75WgFG_JbCctH-1" style="edgeStyle=orthogonalEdgeStyle;rounded=0;orthogonalLoop=1;jettySize=auto;html=1;exitX=1;exitY=0.5;exitDx=0;exitDy=0;entryX=0;entryY=0.5;entryDx=0;entryDy=0;" edge="1" parent="1" source="tNoYxJo75WgFG_JbCctH-2" target="tNoYxJo75WgFG_JbCctH-4">
          <mxGeometry relative="1" as="geometry" />
        </mxCell>
        <mxCell id="tNoYxJo75WgFG_JbCctH-2" value="百货同步结算单" style="rounded=1;whiteSpace=wrap;html=1;fillColor=none;" vertex="1" parent="1">
          <mxGeometry x="40" y="80" width="50" height="50" as="geometry" />
        </mxCell>
        <mxCell id="tNoYxJo75WgFG_JbCctH-3" style="edgeStyle=orthogonalEdgeStyle;rounded=0;orthogonalLoop=1;jettySize=auto;html=1;exitX=1;exitY=0.5;exitDx=0;exitDy=0;entryX=0;entryY=0.5;entryDx=0;entryDy=0;" edge="1" parent="1" source="tNoYxJo75WgFG_JbCctH-4" target="tNoYxJo75WgFG_JbCctH-8">
          <mxGeometry relative="1" as="geometry">
            <Array as="points">
              <mxPoint x="280" y="105" />
              <mxPoint x="280" y="164" />
            </Array>
          </mxGeometry>
        </mxCell>
        <mxCell id="tNoYxJo75WgFG_JbCctH-4" value="&lt;span&gt;sap中间库&amp;nbsp;表明&lt;/span&gt;" style="rounded=0;whiteSpace=wrap;html=1;fillColor=none;" vertex="1" parent="1">
          <mxGeometry x="120" y="80" width="90" height="50" as="geometry" />
        </mxCell>
        <mxCell id="tNoYxJo75WgFG_JbCctH-5" style="edgeStyle=orthogonalEdgeStyle;rounded=0;orthogonalLoop=1;jettySize=auto;html=1;entryX=0;entryY=0.5;entryDx=0;entryDy=0;exitX=1;exitY=0.5;exitDx=0;exitDy=0;" edge="1" parent="1" target="tNoYxJo75WgFG_JbCctH-9">
          <mxGeometry relative="1" as="geometry">
            <mxPoint x="460" y="165" as="sourcePoint" />
            <Array as="points">
              <mxPoint x="495" y="165" />
              <mxPoint x="495" y="120" />
            </Array>
          </mxGeometry>
        </mxCell>
        <mxCell id="tNoYxJo75WgFG_JbCctH-6" style="edgeStyle=orthogonalEdgeStyle;rounded=0;orthogonalLoop=1;jettySize=auto;html=1;entryX=-0.027;entryY=0.393;entryDx=0;entryDy=0;entryPerimeter=0;" edge="1" parent="1" target="tNoYxJo75WgFG_JbCctH-10">
          <mxGeometry relative="1" as="geometry">
            <mxPoint x="460" y="165.0344827586207" as="sourcePoint" />
          </mxGeometry>
        </mxCell>
        <mxCell id="tNoYxJo75WgFG_JbCctH-7" style="edgeStyle=orthogonalEdgeStyle;rounded=0;orthogonalLoop=1;jettySize=auto;html=1;entryX=0;entryY=0.25;entryDx=0;entryDy=0;" edge="1" parent="1" target="tNoYxJo75WgFG_JbCctH-11">
          <mxGeometry relative="1" as="geometry">
            <mxPoint x="460" y="165.0344827586207" as="sourcePoint" />
          </mxGeometry>
        </mxCell>
        <mxCell id="tNoYxJo75WgFG_JbCctH-8" value="supplier_settlement_info&lt;br&gt;供应商结算信息表" style="rounded=0;whiteSpace=wrap;html=1;fillColor=none;" vertex="1" parent="1">
          <mxGeometry x="330" y="139" width="140" height="50" as="geometry" />
        </mxCell>
        <mxCell id="tNoYxJo75WgFG_JbCctH-9" value="settlement_invoice_detail&amp;nbsp;&lt;br&gt;结算单发票明细表" style="rounded=0;whiteSpace=wrap;html=1;fillColor=none;" vertex="1" parent="1">
          <mxGeometry x="530" y="100" width="140" height="40" as="geometry" />
        </mxCell>
        <mxCell id="tNoYxJo75WgFG_JbCctH-10" value="settlement_jxsale_detail&amp;nbsp;&lt;br&gt;经销结算单明细" style="rounded=0;whiteSpace=wrap;html=1;fillColor=none;" vertex="1" parent="1">
          <mxGeometry x="530" y="150" width="140" height="40" as="geometry" />
        </mxCell>
        <mxCell id="tNoYxJo75WgFG_JbCctH-11" value="settlement_sale_detail单销售结算明细表" style="rounded=0;whiteSpace=wrap;html=1;fillColor=none;" vertex="1" parent="1">
          <mxGeometry x="531" y="200" width="140" height="40" as="geometry" />
        </mxCell>
        <mxCell id="tNoYxJo75WgFG_JbCctH-12" value="" style="edgeStyle=orthogonalEdgeStyle;rounded=0;orthogonalLoop=1;jettySize=auto;html=1;" edge="1" parent="1" source="tNoYxJo75WgFG_JbCctH-13" target="tNoYxJo75WgFG_JbCctH-15">
          <mxGeometry relative="1" as="geometry" />
        </mxCell>
        <mxCell id="tNoYxJo75WgFG_JbCctH-13" value="超市同步结算单" style="rounded=1;whiteSpace=wrap;html=1;fillColor=none;" vertex="1" parent="1">
          <mxGeometry x="40" y="200" width="50" height="50" as="geometry" />
        </mxCell>
        <mxCell id="tNoYxJo75WgFG_JbCctH-14" style="edgeStyle=orthogonalEdgeStyle;rounded=0;orthogonalLoop=1;jettySize=auto;html=1;entryX=-0.013;entryY=0.846;entryDx=0;entryDy=0;entryPerimeter=0;" edge="1" parent="1" source="tNoYxJo75WgFG_JbCctH-15" target="tNoYxJo75WgFG_JbCctH-8">
          <mxGeometry relative="1" as="geometry">
            <Array as="points">
              <mxPoint x="280" y="225" />
              <mxPoint x="280" y="181" />
            </Array>
          </mxGeometry>
        </mxCell>
        <mxCell id="tNoYxJo75WgFG_JbCctH-15" value="&lt;span&gt;os中间库&amp;nbsp;表明&lt;/span&gt;" style="rounded=0;whiteSpace=wrap;html=1;fillColor=none;" vertex="1" parent="1">
          <mxGeometry x="120" y="200" width="90" height="50" as="geometry" />
        </mxCell>
        <mxCell id="tNoYxJo75WgFG_JbCctH-16" value="收票" style="rounded=1;whiteSpace=wrap;html=1;fillColor=none;" vertex="1" parent="1">
          <mxGeometry x="40" y="320" width="90" height="40" as="geometry" />
        </mxCell>
        <mxCell id="tNoYxJo75WgFG_JbCctH-17" value="os:多点" style="text;html=1;strokeColor=none;fillColor=#FFF2CC;align=left;verticalAlign=middle;whiteSpace=wrap;rounded=0;" vertex="1" parent="1">
          <mxGeometry x="210" y="200" width="50" height="20" as="geometry" />
        </mxCell>
        <mxCell id="tNoYxJo75WgFG_JbCctH-18" value="payment_order_info" style="rounded=0;whiteSpace=wrap;html=1;fillColor=none;" vertex="1" parent="1">
          <mxGeometry x="80" y="400" width="150" height="40" as="geometry" />
        </mxCell>
        <mxCell id="tNoYxJo75WgFG_JbCctH-19" value="payment_supplier_expand" style="rounded=0;whiteSpace=wrap;html=1;fillColor=none;" vertex="1" parent="1">
          <mxGeometry x="80" y="460" width="150" height="40" as="geometry" />
        </mxCell>
        <mxCell id="tNoYxJo75WgFG_JbCctH-20" value="收票：结算单关联发票生成付款单" style="text;html=1;strokeColor=none;fillColor=#FFF2CC;align=left;verticalAlign=middle;whiteSpace=wrap;rounded=0;" vertex="1" parent="1">
          <mxGeometry x="135" y="320" width="125" height="30" as="geometry" />
        </mxCell>
      </root>
    </mxGraphModel>
  </diagram>
</mxfile>
